Coordinates
version=1
nRows=65
nColumns=12
inDegrees=yes

Units are S.I. units (second, meters, Newtons, ...)
Angles are in degrees

endheader
time	SC_y	SC_z	SC_x	AC_y	AC_z	AC_x	GH_y	GH_z	GH_yy	EL_x	PS_y
       0.0              -40.78          39.68          62.17          52.09          -2.46          13.51          35.63          14.03          109.7          88.37          71.36
   0.02402              -40.78          39.68          62.17           52.1         -2.461          13.51          35.63          14.04          109.7          88.36          71.36
   0.04803              -40.78          39.67          62.17           52.1         -2.463          13.51          35.62          14.05          109.7          88.35          71.36
   0.07205              -40.79          39.67          62.17           52.1         -2.466          13.51          35.62          14.06          109.7          88.34          71.36
   0.09606              -40.79          39.67          62.17           52.1         -2.468          13.51          35.61          14.07          109.7          88.33          71.36
    0.1201              -40.79          39.66          62.18          52.11          -2.47          13.51          35.61          14.08          109.7          88.33          71.36
    0.1441               -40.8          39.66          62.18          52.11         -2.473          13.51           35.6          14.09          109.7          88.32          71.36
    0.1681               -40.8          39.65          62.18          52.11         -2.476          13.51          35.59           14.1          109.7           88.3          71.36
    0.1921               -40.8          39.65          62.18          52.12         -2.479          13.51          35.59          14.12          109.7          88.29          71.36
    0.2161              -40.81          39.65          62.18          52.12         -2.482          13.51          35.58          14.13          109.7          88.28          71.36
    0.2402              -40.81          39.64          62.19          52.12         -2.485          13.51          35.57          14.15          109.7          88.27          71.35
    0.2642              -40.82          39.63          62.19          52.13         -2.489          13.52          35.56          14.16          109.7          88.25          71.35
    0.2882              -40.82          39.63          62.19          52.13         -2.493          13.52          35.55          14.18          109.7          88.24          71.35
    0.3122              -40.83          39.62           62.2          52.14         -2.497          13.52          35.54           14.2          109.7          88.22          71.35
    0.3362              -40.83          39.61           62.2          52.14         -2.502          13.52          35.53          14.22          109.7          88.21          71.35
    0.3602              -40.84          39.61           62.2          52.15         -2.507          13.52          35.52          14.25          109.6          88.19          71.35
    0.3843              -40.85           39.6          62.21          52.16         -2.512          13.52          35.51          14.27          109.6          88.17          71.34
    0.4083              -40.86          39.59          62.21          52.16         -2.518          13.53           35.5           14.3          109.6          88.14          71.34
    0.4323              -40.87          39.58          62.22          52.17         -2.525          13.53          35.48          14.33          109.6          88.12          71.34
    0.4563              -40.88          39.57          62.22          52.18         -2.532          13.53          35.46          14.36          109.6          88.09          71.34
    0.4803              -40.89          39.55          62.23          52.19          -2.54          13.53          35.45          14.39          109.6          88.06          71.33
    0.5043               -40.9          39.54          62.23           52.2         -2.548          13.54          35.43          14.43          109.6          88.03          71.33
    0.5284              -40.91          39.52          62.24          52.21         -2.558          13.54           35.4          14.48          109.6          87.99          71.33
    0.5524              -40.93          39.51          62.25          52.22         -2.568          13.55          35.38          14.52          109.5          87.95          71.32
    0.5764              -40.94          39.49          62.26          52.24          -2.58          13.55          35.35          14.58          109.5          87.91          71.32
    0.6004              -40.96          39.47          62.27          52.25         -2.593          13.55          35.32          14.64          109.5          87.86          71.31
    0.6244              -40.98          39.44          62.28          52.27         -2.608          13.56          35.29           14.7          109.5           87.8          71.31
    0.6484               -41.0          39.42          62.29          52.29         -2.624          13.57          35.25          14.78          109.5          87.74           71.3
    0.6725              -41.03          39.39           62.3          52.31         -2.643          13.57          35.21          14.86          109.4          87.67           71.3
    0.6965              -41.06          39.35          62.32          52.34         -2.664          13.58          35.16          14.96          109.4          87.59          71.29
    0.7205              -41.09          39.32          62.34          52.37         -2.688          13.59           35.1          15.07          109.3           87.5          71.28
    0.7445              -41.13          39.27          62.36           52.4         -2.715           13.6          35.04          15.19          109.3          87.39          71.27
    0.7685              -41.17          39.22          62.38          52.44         -2.747          13.61          34.96          15.34          109.2          87.27          71.26
    0.7925              -41.22          39.16          62.41          52.48         -2.784          13.62          34.87          15.51          109.2          87.13          71.24
    0.8166              -41.28          39.09          62.44          52.53         -2.828          13.64          34.77           15.7          109.1          86.96          71.23
    0.8406              -41.35          39.01          62.48           52.6         -2.879          13.66          34.65          15.93          109.0          86.77          71.21
    0.8646              -41.43          38.91          62.53          52.67         -2.939          13.68          34.51          16.21          108.9          86.54          71.18
    0.8886              -41.53           38.8          62.58          52.76         -3.012          13.71          34.34          16.54          108.8          86.26          71.16
    0.9126              -41.65          38.66          62.64          52.86           -3.1          13.74          34.14          16.94          108.7          85.92          71.12
    0.9366               -41.8          38.48          62.73          52.99         -3.208          13.78          33.88          17.43          108.5          85.51          71.08
    0.9606              -41.98          38.27          62.82          53.15         -3.341          13.83          33.57          18.03          108.3          85.01          71.03
    0.9847               -42.2          38.01          62.95          53.35         -3.506          13.89          33.19          18.79          108.0          84.38          70.97
     1.009              -42.48          37.67           63.1           53.6         -3.715          13.97           32.7          19.73          107.6          83.58          70.89
     1.033              -42.85          37.25           63.3          53.91          -3.98          14.06          32.08          20.94          107.2          82.57          70.79
     1.057              -43.31          36.71          63.55          54.32          -4.32          14.19          31.29          22.48          106.6          81.28          70.66
     1.081               -43.9          36.01          63.88          54.84         -4.755          14.35          30.27          24.46          105.9          79.62           70.5
     1.105              -44.66          35.12          64.29          55.51         -5.312          14.55          28.97          26.99          105.0          77.49          70.29
     1.129              -45.61           34.0          64.81          56.34         -6.011          14.81          27.34          30.16          103.8          74.83          70.03
     1.153              -46.77          32.64          65.45          57.36         -6.864          15.12          25.35          34.04          102.4          71.58          69.71
     1.177              -48.11          31.06          66.19          58.55         -7.852          15.48          23.04          38.52          100.8          67.81          69.34
     1.201              -49.56          29.35          66.98          59.83         -8.923          15.87          20.54          43.38          99.02          63.73          68.94
     1.225              -51.02          27.64          67.78          61.11         -9.993          16.26          18.04          48.24          97.25          59.65          68.53
     1.249              -52.36          26.06          68.52          62.29         -10.98          16.62          15.73          52.73          95.61          55.89          68.16
     1.273              -53.52           24.7          69.15          63.31         -11.83          16.94          13.74          56.61           94.2          52.64          67.84
     1.297              -54.47          23.58          69.67          64.15         -12.53          17.19          12.11          59.78          93.04          49.97          67.58
     1.321              -55.23          22.69          70.09          64.81         -13.09           17.4          10.81          62.31          92.12          47.85          67.37
     1.345              -55.82           22.0          70.41          65.33         -13.53          17.56          9.789          64.29          91.39          46.19          67.21
     1.369              -56.28          21.45          70.67          65.74         -13.86          17.68          8.996          65.83          90.83           44.9          67.08
     1.393              -56.64          21.03          70.86          66.06         -14.13          17.78          8.377          67.04          90.39          43.88          66.98
     1.417              -56.93           20.7          71.02          66.31         -14.34          17.85           7.89          67.98          90.05          43.09           66.9
     1.441              -57.15          20.43          71.14           66.5          -14.5          17.91          7.503          68.74          89.77          42.46          66.84
     1.465              -57.33          20.22          71.24          66.66         -14.64          17.96          7.193          69.34          89.55          41.95          66.79
     1.489              -57.48          20.05          71.32          66.79         -14.74           18.0          6.941          69.83          89.38          41.54          66.75
     1.513               -57.6          19.91          71.39           66.9         -14.83          18.03          6.736          70.23          89.23          41.21          66.72
     1.537               -57.7          19.79          71.44          66.98         -14.91          18.06          6.566          70.56          89.11          40.93          66.69
